<svg xmlns="http://www.w3.org/2000/svg" xmlns:xlink="http://www.w3.org/1999/xlink" width="324" height="44" viewBox="0 0 324 44">
  <defs>
    <clipPath id="clip-path">
      <rect width="10" height="2" fill="none"/>
    </clipPath>
  </defs>
  <g id="Group_40" data-name="Group 40" transform="translate(-24 -409)">
    <circle id="Ellipse_2" data-name="Ellipse 2" cx="1" cy="1" r="1" transform="translate(24 418)" fill="#667eea"/>
    <circle id="Ellipse_2-2" data-name="Ellipse 2" cx="1" cy="1" r="1" transform="translate(346 418)" fill="#667eea"/>
    <circle id="Ellipse_2-3" data-name="Ellipse 2" cx="1" cy="1" r="1" transform="translate(24 425)" fill="#667eea"/>
    <circle id="Ellipse_2-4" data-name="Ellipse 2" cx="1" cy="1" r="1" transform="translate(346 425)" fill="#667eea"/>
    <circle id="Ellipse_2-5" data-name="Ellipse 2" cx="1" cy="1" r="1" transform="translate(24 432)" fill="#667eea"/>
    <circle id="Ellipse_2-6" data-name="Ellipse 2" cx="1" cy="1" r="1" transform="translate(346 432)" fill="#667eea"/>
    <circle id="Ellipse_2-7" data-name="Ellipse 2" cx="1" cy="1" r="1" transform="translate(24 439)" fill="#667eea"/>
    <circle id="Ellipse_2-8" data-name="Ellipse 2" cx="1" cy="1" r="1" transform="translate(346 439)" fill="#667eea"/>
    <circle id="Ellipse_2-9" data-name="Ellipse 2" cx="1" cy="1" r="1" transform="translate(24 446)" fill="#667eea"/>
    <circle id="Ellipse_2-10" data-name="Ellipse 2" cx="1" cy="1" r="1" transform="translate(346 446)" fill="#667eea"/>
    <g id="Repeat_Grid_2" data-name="Repeat Grid 2" transform="translate(24 409)" clip-path="url(#clip-path)">
      <g transform="translate(-24 -275)">
        <circle id="Ellipse_2-11" data-name="Ellipse 2" cx="1" cy="1" r="1" transform="translate(24 275)" fill="#667eea"/>
      </g>
      <g transform="translate(-17 -275)">
        <circle id="Ellipse_2-12" data-name="Ellipse 2" cx="1" cy="1" r="1" transform="translate(24 275)" fill="#667eea"/>
      </g>
    </g>
    <circle id="Ellipse_2-13" data-name="Ellipse 2" cx="1" cy="1" r="1" transform="translate(38 409)" fill="#667eea"/>
    <circle id="Ellipse_2-14" data-name="Ellipse 2" cx="1" cy="1" r="1" transform="translate(45 409)" fill="#667eea"/>
    <circle id="Ellipse_2-15" data-name="Ellipse 2" cx="1" cy="1" r="1" transform="translate(52 409)" fill="#667eea"/>
    <circle id="Ellipse_2-16" data-name="Ellipse 2" cx="1" cy="1" r="1" transform="translate(59 409)" fill="#667eea"/>
    <circle id="Ellipse_2-17" data-name="Ellipse 2" cx="1" cy="1" r="1" transform="translate(66 409)" fill="#667eea"/>
    <circle id="Ellipse_2-18" data-name="Ellipse 2" cx="1" cy="1" r="1" transform="translate(73 409)" fill="#667eea"/>
    <circle id="Ellipse_2-19" data-name="Ellipse 2" cx="1" cy="1" r="1" transform="translate(80 409)" fill="#667eea"/>
    <circle id="Ellipse_2-20" data-name="Ellipse 2" cx="1" cy="1" r="1" transform="translate(87 409)" fill="#667eea"/>
    <circle id="Ellipse_2-21" data-name="Ellipse 2" cx="1" cy="1" r="1" transform="translate(94 409)" fill="#667eea"/>
    <circle id="Ellipse_2-22" data-name="Ellipse 2" cx="1" cy="1" r="1" transform="translate(101 409)" fill="#667eea"/>
    <circle id="Ellipse_2-23" data-name="Ellipse 2" cx="1" cy="1" r="1" transform="translate(108 409)" fill="#667eea"/>
    <circle id="Ellipse_2-24" data-name="Ellipse 2" cx="1" cy="1" r="1" transform="translate(115 409)" fill="#667eea"/>
    <circle id="Ellipse_2-25" data-name="Ellipse 2" cx="1" cy="1" r="1" transform="translate(122 409)" fill="#667eea"/>
    <circle id="Ellipse_2-26" data-name="Ellipse 2" cx="1" cy="1" r="1" transform="translate(129 409)" fill="#667eea"/>
    <circle id="Ellipse_2-27" data-name="Ellipse 2" cx="1" cy="1" r="1" transform="translate(136 409)" fill="#667eea"/>
    <circle id="Ellipse_2-28" data-name="Ellipse 2" cx="1" cy="1" r="1" transform="translate(143 409)" fill="#667eea"/>
    <circle id="Ellipse_2-29" data-name="Ellipse 2" cx="1" cy="1" r="1" transform="translate(150 409)" fill="#667eea"/>
    <circle id="Ellipse_2-30" data-name="Ellipse 2" cx="1" cy="1" r="1" transform="translate(157 409)" fill="#667eea"/>
    <circle id="Ellipse_2-31" data-name="Ellipse 2" cx="1" cy="1" r="1" transform="translate(164 409)" fill="#667eea"/>
    <circle id="Ellipse_2-32" data-name="Ellipse 2" cx="1" cy="1" r="1" transform="translate(171 409)" fill="#667eea"/>
    <circle id="Ellipse_2-33" data-name="Ellipse 2" cx="1" cy="1" r="1" transform="translate(178 409)" fill="#667eea"/>
    <circle id="Ellipse_2-34" data-name="Ellipse 2" cx="1" cy="1" r="1" transform="translate(185 409)" fill="#667eea"/>
    <circle id="Ellipse_2-35" data-name="Ellipse 2" cx="1" cy="1" r="1" transform="translate(192 409)" fill="#667eea"/>
    <circle id="Ellipse_2-36" data-name="Ellipse 2" cx="1" cy="1" r="1" transform="translate(199 409)" fill="#667eea"/>
    <circle id="Ellipse_2-37" data-name="Ellipse 2" cx="1" cy="1" r="1" transform="translate(206 409)" fill="#667eea"/>
    <circle id="Ellipse_2-38" data-name="Ellipse 2" cx="1" cy="1" r="1" transform="translate(213 409)" fill="#667eea"/>
    <circle id="Ellipse_2-39" data-name="Ellipse 2" cx="1" cy="1" r="1" transform="translate(220 409)" fill="#667eea"/>
    <circle id="Ellipse_2-40" data-name="Ellipse 2" cx="1" cy="1" r="1" transform="translate(227 409)" fill="#667eea"/>
    <circle id="Ellipse_2-41" data-name="Ellipse 2" cx="1" cy="1" r="1" transform="translate(234 409)" fill="#667eea"/>
    <circle id="Ellipse_2-42" data-name="Ellipse 2" cx="1" cy="1" r="1" transform="translate(241 409)" fill="#667eea"/>
    <circle id="Ellipse_2-43" data-name="Ellipse 2" cx="1" cy="1" r="1" transform="translate(248 409)" fill="#667eea"/>
    <circle id="Ellipse_2-44" data-name="Ellipse 2" cx="1" cy="1" r="1" transform="translate(255 409)" fill="#667eea"/>
    <circle id="Ellipse_2-45" data-name="Ellipse 2" cx="1" cy="1" r="1" transform="translate(262 409)" fill="#667eea"/>
    <circle id="Ellipse_2-46" data-name="Ellipse 2" cx="1" cy="1" r="1" transform="translate(269 409)" fill="#667eea"/>
    <circle id="Ellipse_2-47" data-name="Ellipse 2" cx="1" cy="1" r="1" transform="translate(276 409)" fill="#667eea"/>
    <circle id="Ellipse_2-48" data-name="Ellipse 2" cx="1" cy="1" r="1" transform="translate(283 409)" fill="#667eea"/>
    <circle id="Ellipse_2-49" data-name="Ellipse 2" cx="1" cy="1" r="1" transform="translate(290 409)" fill="#667eea"/>
    <circle id="Ellipse_2-50" data-name="Ellipse 2" cx="1" cy="1" r="1" transform="translate(297 409)" fill="#667eea"/>
    <circle id="Ellipse_2-51" data-name="Ellipse 2" cx="1" cy="1" r="1" transform="translate(304 409)" fill="#667eea"/>
    <circle id="Ellipse_2-52" data-name="Ellipse 2" cx="1" cy="1" r="1" transform="translate(311 409)" fill="#667eea"/>
    <circle id="Ellipse_2-53" data-name="Ellipse 2" cx="1" cy="1" r="1" transform="translate(318 409)" fill="#667eea"/>
    <circle id="Ellipse_2-54" data-name="Ellipse 2" cx="1" cy="1" r="1" transform="translate(325 409)" fill="#667eea"/>
    <circle id="Ellipse_2-55" data-name="Ellipse 2" cx="1" cy="1" r="1" transform="translate(332 409)" fill="#667eea"/>
    <circle id="Ellipse_2-56" data-name="Ellipse 2" cx="1" cy="1" r="1" transform="translate(339 409)" fill="#667eea"/>
    <circle id="Ellipse_2-57" data-name="Ellipse 2" cx="1" cy="1" r="1" transform="translate(346 409)" fill="#667eea"/>
    <circle id="Ellipse_2-58" data-name="Ellipse 2" cx="1" cy="1" r="1" transform="translate(24 451)" fill="#667eea"/>
    <circle id="Ellipse_2-59" data-name="Ellipse 2" cx="1" cy="1" r="1" transform="translate(31 451)" fill="#667eea"/>
    <circle id="Ellipse_2-60" data-name="Ellipse 2" cx="1" cy="1" r="1" transform="translate(38 451)" fill="#667eea"/>
    <circle id="Ellipse_2-61" data-name="Ellipse 2" cx="1" cy="1" r="1" transform="translate(45 451)" fill="#667eea"/>
    <circle id="Ellipse_2-62" data-name="Ellipse 2" cx="1" cy="1" r="1" transform="translate(52 451)" fill="#667eea"/>
    <circle id="Ellipse_2-63" data-name="Ellipse 2" cx="1" cy="1" r="1" transform="translate(59 451)" fill="#667eea"/>
    <circle id="Ellipse_2-64" data-name="Ellipse 2" cx="1" cy="1" r="1" transform="translate(66 451)" fill="#667eea"/>
    <circle id="Ellipse_2-65" data-name="Ellipse 2" cx="1" cy="1" r="1" transform="translate(73 451)" fill="#667eea"/>
    <circle id="Ellipse_2-66" data-name="Ellipse 2" cx="1" cy="1" r="1" transform="translate(80 451)" fill="#667eea"/>
    <circle id="Ellipse_2-67" data-name="Ellipse 2" cx="1" cy="1" r="1" transform="translate(87 451)" fill="#667eea"/>
    <circle id="Ellipse_2-68" data-name="Ellipse 2" cx="1" cy="1" r="1" transform="translate(94 451)" fill="#667eea"/>
    <circle id="Ellipse_2-69" data-name="Ellipse 2" cx="1" cy="1" r="1" transform="translate(101 451)" fill="#667eea"/>
    <circle id="Ellipse_2-70" data-name="Ellipse 2" cx="1" cy="1" r="1" transform="translate(108 451)" fill="#667eea"/>
    <circle id="Ellipse_2-71" data-name="Ellipse 2" cx="1" cy="1" r="1" transform="translate(115 451)" fill="#667eea"/>
    <circle id="Ellipse_2-72" data-name="Ellipse 2" cx="1" cy="1" r="1" transform="translate(122 451)" fill="#667eea"/>
    <circle id="Ellipse_2-73" data-name="Ellipse 2" cx="1" cy="1" r="1" transform="translate(129 451)" fill="#667eea"/>
    <circle id="Ellipse_2-74" data-name="Ellipse 2" cx="1" cy="1" r="1" transform="translate(136 451)" fill="#667eea"/>
    <circle id="Ellipse_2-75" data-name="Ellipse 2" cx="1" cy="1" r="1" transform="translate(143 451)" fill="#667eea"/>
    <circle id="Ellipse_2-76" data-name="Ellipse 2" cx="1" cy="1" r="1" transform="translate(150 451)" fill="#667eea"/>
    <circle id="Ellipse_2-77" data-name="Ellipse 2" cx="1" cy="1" r="1" transform="translate(157 451)" fill="#667eea"/>
    <circle id="Ellipse_2-78" data-name="Ellipse 2" cx="1" cy="1" r="1" transform="translate(164 451)" fill="#667eea"/>
    <circle id="Ellipse_2-79" data-name="Ellipse 2" cx="1" cy="1" r="1" transform="translate(171 451)" fill="#667eea"/>
    <circle id="Ellipse_2-80" data-name="Ellipse 2" cx="1" cy="1" r="1" transform="translate(178 451)" fill="#667eea"/>
    <circle id="Ellipse_2-81" data-name="Ellipse 2" cx="1" cy="1" r="1" transform="translate(185 451)" fill="#667eea"/>
    <circle id="Ellipse_2-82" data-name="Ellipse 2" cx="1" cy="1" r="1" transform="translate(192 451)" fill="#667eea"/>
    <circle id="Ellipse_2-83" data-name="Ellipse 2" cx="1" cy="1" r="1" transform="translate(199 451)" fill="#667eea"/>
    <circle id="Ellipse_2-84" data-name="Ellipse 2" cx="1" cy="1" r="1" transform="translate(206 451)" fill="#667eea"/>
    <circle id="Ellipse_2-85" data-name="Ellipse 2" cx="1" cy="1" r="1" transform="translate(213 451)" fill="#667eea"/>
    <circle id="Ellipse_2-86" data-name="Ellipse 2" cx="1" cy="1" r="1" transform="translate(220 451)" fill="#667eea"/>
    <circle id="Ellipse_2-87" data-name="Ellipse 2" cx="1" cy="1" r="1" transform="translate(227 451)" fill="#667eea"/>
    <circle id="Ellipse_2-88" data-name="Ellipse 2" cx="1" cy="1" r="1" transform="translate(234 451)" fill="#667eea"/>
    <circle id="Ellipse_2-89" data-name="Ellipse 2" cx="1" cy="1" r="1" transform="translate(241 451)" fill="#667eea"/>
    <circle id="Ellipse_2-90" data-name="Ellipse 2" cx="1" cy="1" r="1" transform="translate(248 451)" fill="#667eea"/>
    <circle id="Ellipse_2-91" data-name="Ellipse 2" cx="1" cy="1" r="1" transform="translate(255 451)" fill="#667eea"/>
    <circle id="Ellipse_2-92" data-name="Ellipse 2" cx="1" cy="1" r="1" transform="translate(262 451)" fill="#667eea"/>
    <circle id="Ellipse_2-93" data-name="Ellipse 2" cx="1" cy="1" r="1" transform="translate(269 451)" fill="#667eea"/>
    <circle id="Ellipse_2-94" data-name="Ellipse 2" cx="1" cy="1" r="1" transform="translate(276 451)" fill="#667eea"/>
    <circle id="Ellipse_2-95" data-name="Ellipse 2" cx="1" cy="1" r="1" transform="translate(283 451)" fill="#667eea"/>
    <circle id="Ellipse_2-96" data-name="Ellipse 2" cx="1" cy="1" r="1" transform="translate(290 451)" fill="#667eea"/>
    <circle id="Ellipse_2-97" data-name="Ellipse 2" cx="1" cy="1" r="1" transform="translate(297 451)" fill="#667eea"/>
    <circle id="Ellipse_2-98" data-name="Ellipse 2" cx="1" cy="1" r="1" transform="translate(304 451)" fill="#667eea"/>
    <circle id="Ellipse_2-99" data-name="Ellipse 2" cx="1" cy="1" r="1" transform="translate(311 451)" fill="#667eea"/>
    <circle id="Ellipse_2-100" data-name="Ellipse 2" cx="1" cy="1" r="1" transform="translate(318 451)" fill="#667eea"/>
    <circle id="Ellipse_2-101" data-name="Ellipse 2" cx="1" cy="1" r="1" transform="translate(325 451)" fill="#667eea"/>
    <circle id="Ellipse_2-102" data-name="Ellipse 2" cx="1" cy="1" r="1" transform="translate(332 451)" fill="#667eea"/>
    <circle id="Ellipse_2-103" data-name="Ellipse 2" cx="1" cy="1" r="1" transform="translate(339 451)" fill="#667eea"/>
    <circle id="Ellipse_2-104" data-name="Ellipse 2" cx="1" cy="1" r="1" transform="translate(346 451)" fill="#667eea"/>
  </g>
</svg>
